<svg height="32" viewBox="0 0 32 32" width="32" xmlns="http://www.w3.org/2000/svg"><g fill="#515151"><path d="M25.695 9.43c0 .77-.63 1.4-1.402 1.4H8.875c-.77 0-1.402-.63-1.402-1.4V7.152c0-.77.63-1.402 1.402-1.402h15.418c.77 0 1.402.63 1.402 1.402V9.43zM25.695 24.848c0 .77-.63 1.402-1.402 1.402H8.875c-.77 0-1.402-.63-1.402-1.402V22.57c0-.77.63-1.4 1.402-1.4h15.418c.77 0 1.402.63 1.402 1.4v2.278zM25.695 17.14c0 .77-.63 1.4-1.402 1.4H8.875c-.77 0-1.402-.63-1.402-1.4V14.86c0-.77.63-1.402 1.402-1.402h15.418c.77 0 1.402.63 1.402 1.402v2.277z"/></g></svg>